<svg width="29" height="29" xmlns="http://www.w3.org/2000/svg" xmlns:xlink="http://www.w3.org/1999/xlink" xml:space="preserve" overflow="hidden"><g transform="translate(-304 -44)"><path d="M313.365 53.3646 310.042 53.3646 310.042 51.25 313.365 51.25 313.365 53.3646ZM317.896 51.25 317.896 53.3646 314.573 53.3646 314.573 51.25 317.896 51.25ZM322.427 51.25 322.427 53.3646 319.104 53.3646 319.104 51.25 322.427 51.25ZM326.958 51.25 326.958 53.3646 323.635 53.3646 323.635 51.25 326.958 51.25ZM326.958 56.6875 323.635 56.6875 323.635 54.5729 326.958 54.5729 326.958 56.6875ZM326.958 59.2552 323.635 59.5573 323.635 57.8958 326.958 57.8958 326.958 59.2552ZM313.365 57.8958 313.365 60.4635 310.042 60.7656 310.042 57.8958 313.365 57.8958ZM313.365 56.6875 310.042 56.6875 310.042 54.5729 313.365 54.5729 313.365 56.6875ZM317.896 56.6875 314.573 56.6875 314.573 54.5729 317.896 54.5729 317.896 56.6875ZM319.104 56.6875 319.104 54.5729 322.427 54.5729 322.427 56.6875 319.104 56.6875ZM317.896 60.0708 314.573 60.3729 314.573 57.8958 317.896 57.8958 317.896 60.0708ZM319.104 57.8958 322.427 57.8958 322.427 59.6479 319.104 59.95 319.104 57.8958ZM328.771 60.9167 328.771 49.4375 310.042 49.4375 310.042 49.1354C310.042 47.625 308.833 46.4167 307.323 46.4167 306.809 46.4167 306.417 46.8094 306.417 47.3229 306.417 47.8365 306.809 48.2292 307.323 48.2292 307.836 48.2292 308.229 48.6219 308.229 49.1354L308.229 64.2396C308.229 65.75 309.438 66.9583 310.948 66.9583L311.854 66.9583 325.146 66.9583 327.865 66.9583C328.378 66.9583 328.771 66.5656 328.771 66.0521 328.771 65.5385 328.378 65.1458 327.865 65.1458L310.948 65.1458C310.434 65.1458 310.042 64.7531 310.042 64.2396L310.042 62.5781 328.771 60.9167Z" fill="#FFFFFF"/><path d="M313.667 68.7708C313.667 69.7719 312.855 70.5833 311.854 70.5833 310.853 70.5833 310.042 69.7719 310.042 68.7708 310.042 67.7698 310.853 66.9583 311.854 66.9583 312.855 66.9583 313.667 67.7698 313.667 68.7708Z" fill="#FFFFFF"/><path d="M326.958 68.7708C326.958 69.7719 326.147 70.5833 325.146 70.5833 324.145 70.5833 323.333 69.7719 323.333 68.7708 323.333 67.7698 324.145 66.9583 325.146 66.9583 326.147 66.9583 326.958 67.7698 326.958 68.7708Z" fill="#FFFFFF"/></g></svg>